REM DIRINDEX 1\2,1\3,1\4,1\5
REM DIRNAME folder01,folder02,folder03,folder04,folder05
TITLE ""
FILE "1800_167.mp3" MP3
  TRACK 01 AUDIO
    TITLE "2:cjc044_5538"
    INDEX 01 00:00:00
  TRACK 02 AUDIO
    TITLE "0:"
    INDEX 01 00:01:22
  TRACK 03 AUDIO
    TITLE "3:cjc044_5539"
    INDEX 01 00:01:66
  TRACK 04 AUDIO
    TITLE "0:"
    INDEX 01 00:02:73
  TRACK 05 AUDIO
    TITLE "4:cjc044_5540"
    INDEX 01 00:03:45
  TRACK 06 AUDIO
    TITLE "0:"
    INDEX 01 00:05:03
  TRACK 07 AUDIO
    TITLE "2:cjc044_5541"
    INDEX 01 00:06:49
  TRACK 08 AUDIO
    TITLE "0:"
    INDEX 01 00:07:47
  TRACK 09 AUDIO
    TITLE "3:cjc044_5542"
    INDEX 01 00:08:24
  TRACK 10 AUDIO
    TITLE "0:"
    INDEX 01 00:09:28
  TRACK 11 AUDIO
    TITLE "4:cjc044_5543"
    INDEX 01 00:10:00
  TRACK 12 AUDIO
    TITLE "0:"
    INDEX 01 00:10:74
  TRACK 13 AUDIO
    TITLE "2:cjc044_5544"
    INDEX 01 00:12:50
  TRACK 14 AUDIO
    TITLE "0:"
    INDEX 01 00:13:59
  TRACK 15 AUDIO
    TITLE "3:cjc044_5545"
    INDEX 01 00:14:35
  TRACK 16 AUDIO
    TITLE "0:"
    INDEX 01 00:15:40
  TRACK 17 AUDIO
    TITLE "4:cjc044_5546"
    INDEX 01 00:16:12
  TRACK 18 AUDIO
    TITLE "0:"
    INDEX 01 00:17:23
  TRACK 19 AUDIO
    TITLE "2:cjc044_5547"
    INDEX 01 00:18:72
  TRACK 20 AUDIO
    TITLE "0:"
    INDEX 01 00:20:36
  TRACK 21 AUDIO
    TITLE "3:cjc044_5548"
    INDEX 01 00:21:08
  TRACK 22 AUDIO
    TITLE "0:"
    INDEX 01 00:22:27
  TRACK 23 AUDIO
    TITLE "4:cjc044_5549"
    INDEX 01 00:22:74
  TRACK 24 AUDIO
    TITLE "0:"
    INDEX 01 00:24:41
  TRACK 25 AUDIO
    TITLE "2:cjc044_5550"
    INDEX 01 00:26:18
  TRACK 26 AUDIO
    TITLE "0:"
    INDEX 01 00:27:34
  TRACK 27 AUDIO
    TITLE "3:cjc044_5551"
    INDEX 01 00:28:06
  TRACK 28 AUDIO
    TITLE "0:"
    INDEX 01 00:29:03
  TRACK 29 AUDIO
    TITLE "4:cjc044_5552"
    INDEX 01 00:29:50
  TRACK 30 AUDIO
    TITLE "0:"
    INDEX 01 00:30:67
  TRACK 31 AUDIO
    TITLE "2:cjc044_5553"
    INDEX 01 00:32:41
  TRACK 32 AUDIO
    TITLE "0:"
    INDEX 01 00:33:71
  TRACK 33 AUDIO
    TITLE "3:cjc044_5554"
    INDEX 01 00:34:47
  TRACK 34 AUDIO
    TITLE "0:"
    INDEX 01 00:35:72
  TRACK 35 AUDIO
    TITLE "4:cjc044_5555"
    INDEX 01 00:36:42
  TRACK 36 AUDIO
    TITLE "0:"
    INDEX 01 00:37:71
  TRACK 37 AUDIO
    TITLE "2:cjc044_5556"
    INDEX 01 00:39:43
  TRACK 38 AUDIO
    TITLE "0:"
    INDEX 01 00:41:08
  TRACK 39 AUDIO
    TITLE "3:cjc044_5557"
    INDEX 01 00:41:59
  TRACK 40 AUDIO
    TITLE "0:"
    INDEX 01 00:43:23
  TRACK 41 AUDIO
    TITLE "4:cjc044_5558"
    INDEX 01 00:43:70
  TRACK 42 AUDIO
    TITLE "0:"
    INDEX 01 00:45:35
  TRACK 43 AUDIO
    TITLE "2:cjc044_5559"
    INDEX 01 00:47:09
  TRACK 44 AUDIO
    TITLE "0:"
    INDEX 01 00:48:22
  TRACK 45 AUDIO
    TITLE "3:cjc044_5560"
    INDEX 01 00:48:65
  TRACK 46 AUDIO
    TITLE "0:"
    INDEX 01 00:50:13
  TRACK 47 AUDIO
    TITLE "4:cjc044_5561"
    INDEX 01 00:50:60
  TRACK 48 AUDIO
    TITLE "0:"
    INDEX 01 00:51:73
  TRACK 49 AUDIO
    TITLE "2:cjc044_5562"
    INDEX 01 00:53:43
  TRACK 50 AUDIO
    TITLE "0:"
    INDEX 01 00:54:66
  TRACK 51 AUDIO
    TITLE "3:cjc044_5563"
    INDEX 01 00:55:38
  TRACK 52 AUDIO
    TITLE "0:"
    INDEX 01 00:56:47
  TRACK 53 AUDIO
    TITLE "4:cjc044_5564"
    INDEX 01 00:57:15
  TRACK 54 AUDIO
    TITLE "0:"
    INDEX 01 00:58:40
  TRACK 55 AUDIO
    TITLE "2:cjc044_5565"
    INDEX 01 01:00:10
  TRACK 56 AUDIO
    TITLE "0:"
    INDEX 01 01:01:19
  TRACK 57 AUDIO
    TITLE "3:cjc044_5566"
    INDEX 01 01:01:72
  TRACK 58 AUDIO
    TITLE "0:"
    INDEX 01 01:03:43
  TRACK 59 AUDIO
    TITLE "4:cjc044_5567"
    INDEX 01 01:04:13
  TRACK 60 AUDIO
    TITLE "0:"
    INDEX 01 01:05:24
  TRACK 61 AUDIO
    TITLE "2:cjc044_5568"
    INDEX 01 01:07:02
  TRACK 62 AUDIO
    TITLE "0:"
    INDEX 01 01:08:17
  TRACK 63 AUDIO
    TITLE "3:cjc044_5569"
    INDEX 01 01:08:66
  TRACK 64 AUDIO
    TITLE "0:"
    INDEX 01 01:09:59
  TRACK 65 AUDIO
    TITLE "4:cjc044_5570"
    INDEX 01 01:10:31
  TRACK 66 AUDIO
    TITLE "0:"
    INDEX 01 01:11:47
  TRACK 67 AUDIO
    TITLE "2:cjc044_5571"
    INDEX 01 01:13:24
  TRACK 68 AUDIO
    TITLE "0:"
    INDEX 01 01:14:29
  TRACK 69 AUDIO
    TITLE "3:cjc044_5572"
    INDEX 01 01:14:74
  TRACK 70 AUDIO
    TITLE "0:"
    INDEX 01 01:16:03
  TRACK 71 AUDIO
    TITLE "4:cjc044_5573"
    INDEX 01 01:16:52
  TRACK 72 AUDIO
    TITLE "0:"
    INDEX 01 01:17:57
  TRACK 73 AUDIO
    TITLE "2:cjc044_5574"
    INDEX 01 01:19:28
  TRACK 74 AUDIO
    TITLE "0:"
    INDEX 01 01:20:44
  TRACK 75 AUDIO
    TITLE "3:cjc044_5575"
    INDEX 01 01:21:31
  TRACK 76 AUDIO
    TITLE "0:"
    INDEX 01 01:22:46
  TRACK 77 AUDIO
    TITLE "4:cjc044_5576"
    INDEX 01 01:23:18
  TRACK 78 AUDIO
    TITLE "0:"
    INDEX 01 01:24:37
  TRACK 79 AUDIO
    TITLE "2:cjc044_5577"
    INDEX 01 01:26:23
  TRACK 80 AUDIO
    TITLE "0:"
    INDEX 01 01:27:50
  TRACK 81 AUDIO
    TITLE "3:cjc044_5578"
    INDEX 01 01:28:24
  TRACK 82 AUDIO
    TITLE "0:"
    INDEX 01 01:29:41
  TRACK 83 AUDIO
    TITLE "4:cjc044_5579"
    INDEX 01 01:30:15
  TRACK 84 AUDIO
    TITLE "0:"
    INDEX 01 01:31:45
  TRACK 85 AUDIO
    TITLE "2:cjc044_5580"
    INDEX 01 01:33:21
  TRACK 86 AUDIO
    TITLE "0:"
    INDEX 01 01:34:20
  TRACK 87 AUDIO
    TITLE "3:cjc044_5581"
    INDEX 01 01:34:65
  TRACK 88 AUDIO
    TITLE "0:"
    INDEX 01 01:36:64
  TRACK 89 AUDIO
    TITLE "4:cjc044_5582"
    INDEX 01 01:37:36
  TRACK 90 AUDIO
    TITLE "0:"
    INDEX 01 01:38:34
  TRACK 91 AUDIO
    TITLE "2:cjc044_5583"
    INDEX 01 01:40:07
  TRACK 92 AUDIO
    TITLE "0:"
    INDEX 01 01:41:34
  TRACK 93 AUDIO
    TITLE "3:cjc044_5584"
    INDEX 01 01:42:04
  TRACK 94 AUDIO
    TITLE "0:"
    INDEX 01 01:43:27
  TRACK 95 AUDIO
    TITLE "4:cjc044_5585"
    INDEX 01 01:43:72
  TRACK 96 AUDIO
    TITLE "0:"
    INDEX 01 01:45:24
